<svg width="1736" height="650" viewBox="0 0 1736 650" fill="none" xmlns="http://www.w3.org/2000/svg">
<path d="M575.365 0C587.986 0 600.139 4.77277 609.388 13.3604L676.16 75.3633C657.283 43.8754 679.05 0.000171122 719.377 0H1686C1713.61 2.57704e-06 1736 22.3858 1736 50V218.212C1736 245.826 1713.61 268.212 1686 268.212H900.627C892.71 268.212 884.978 266.334 878.03 262.814L965.163 343.724C946.128 312.223 967.904 268.213 1008.29 268.213H1686C1713.61 268.213 1736 290.599 1736 318.213V600C1736 627.614 1713.61 650 1686 650H1311.64C1299.02 650 1286.86 645.224 1277.61 636.633L1210.91 574.678C1229.75 606.164 1207.98 650 1167.67 650H50C22.3858 650 1.00679e-06 627.614 0 600V50C0 22.3858 22.3858 7.85192e-07 50 0H575.365Z" fill="#FCE1A8"/>
<path d="M52.52 87V61.08H55.436L65.228 81.726L74.966 61.08H77.918V86.982H74.876V68.118L66.074 87H64.364L55.562 68.118V87H52.52ZM82.9653 87L82.9473 67.56H86.1693V74.598H89.1393C89.7033 74.598 90.2793 74.61 90.8673 74.634C91.4553 74.658 91.9653 74.712 92.3973 74.796C93.4053 75 94.2873 75.342 95.0433 75.822C95.7993 76.302 96.3873 76.95 96.8073 77.766C97.2273 78.582 97.4373 79.596 97.4373 80.808C97.4373 82.488 96.9993 83.82 96.1233 84.804C95.2593 85.776 94.1253 86.424 92.7213 86.748C92.2413 86.856 91.6893 86.928 91.0653 86.964C90.4533 86.988 89.8713 87 89.3193 87H82.9653ZM86.1693 84.354H89.3733C89.7333 84.354 90.1353 84.342 90.5793 84.318C91.0233 84.294 91.4193 84.234 91.7673 84.138C92.3793 83.958 92.9253 83.604 93.4053 83.076C93.8973 82.548 94.1433 81.792 94.1433 80.808C94.1433 79.812 93.9033 79.044 93.4233 78.504C92.9553 77.964 92.3373 77.61 91.5693 77.442C91.2213 77.358 90.8553 77.304 90.4713 77.28C90.0873 77.256 89.7213 77.244 89.3733 77.244H86.1693V84.354ZM99.6693 87V67.56H102.873V87H99.6693ZM116.116 87.54C114.148 87.54 112.474 87.102 111.094 86.226C109.726 85.338 108.682 84.12 107.962 82.572C107.242 81.024 106.87 79.26 106.846 77.28C106.87 75.252 107.248 73.47 107.98 71.934C108.724 70.386 109.786 69.18 111.166 68.316C112.546 67.452 114.208 67.02 116.152 67.02C118.204 67.02 119.968 67.524 121.444 68.532C122.932 69.54 123.928 70.92 124.432 72.672L121.264 73.626C120.856 72.498 120.19 71.622 119.266 70.998C118.354 70.374 117.304 70.062 116.116 70.062C114.784 70.062 113.686 70.374 112.822 70.998C111.958 71.61 111.316 72.462 110.896 73.554C110.476 74.634 110.26 75.876 110.248 77.28C110.272 79.44 110.77 81.186 111.742 82.518C112.726 83.838 114.184 84.498 116.116 84.498C117.388 84.498 118.444 84.21 119.284 83.634C120.124 83.046 120.76 82.2 121.192 81.096L124.432 81.942C123.76 83.754 122.71 85.14 121.282 86.1C119.854 87.06 118.132 87.54 116.116 87.54ZM125.779 87V84.246C126.499 84.378 127.045 84.354 127.417 84.174C127.801 83.982 128.083 83.652 128.263 83.184C128.455 82.704 128.611 82.104 128.731 81.384C128.935 80.244 129.109 78.972 129.253 77.568C129.409 76.164 129.547 74.628 129.667 72.96C129.799 71.28 129.919 69.48 130.027 67.56H143.617V87H140.413V70.602H132.943C132.871 71.706 132.781 72.84 132.673 74.004C132.577 75.168 132.475 76.302 132.367 77.406C132.259 78.498 132.139 79.518 132.007 80.466C131.887 81.402 131.755 82.212 131.611 82.896C131.383 84.072 131.065 85.014 130.657 85.722C130.249 86.418 129.661 86.868 128.893 87.072C128.125 87.288 127.087 87.264 125.779 87ZM148.672 87L148.654 67.56H151.876V74.598H156.07C156.634 74.598 157.21 74.61 157.798 74.634C158.386 74.658 158.896 74.712 159.328 74.796C160.336 74.988 161.218 75.324 161.974 75.804C162.73 76.284 163.318 76.938 163.738 77.766C164.158 78.582 164.368 79.596 164.368 80.808C164.368 82.488 163.93 83.82 163.054 84.804C162.19 85.776 161.056 86.424 159.652 86.748C159.172 86.856 158.62 86.928 157.996 86.964C157.384 86.988 156.802 87 156.25 87H148.672ZM151.876 84.354H156.304C156.664 84.354 157.066 84.342 157.51 84.318C157.954 84.294 158.35 84.234 158.698 84.138C159.31 83.958 159.856 83.604 160.336 83.076C160.828 82.548 161.074 81.792 161.074 80.808C161.074 79.812 160.834 79.044 160.354 78.504C159.886 77.964 159.268 77.61 158.5 77.442C158.152 77.358 157.786 77.304 157.402 77.28C157.018 77.256 156.652 77.244 156.304 77.244H151.876V84.354ZM174.092 91.32V84.354C175.184 84.354 175.964 84 176.432 83.292C176.9 82.572 177.278 81.39 177.566 79.746C177.758 78.714 177.914 77.61 178.034 76.434C178.154 75.258 178.256 73.95 178.34 72.51C178.436 71.058 178.526 69.408 178.61 67.56H192.002V84.354H193.892V91.32H190.832V87H177.152V91.32H174.092ZM179.024 84.354H188.798V70.206H181.508C181.472 71.058 181.424 71.952 181.364 72.888C181.304 73.812 181.232 74.736 181.148 75.66C181.076 76.584 180.986 77.46 180.878 78.288C180.782 79.104 180.668 79.836 180.536 80.484C180.38 81.384 180.2 82.146 179.996 82.77C179.792 83.394 179.468 83.922 179.024 84.354ZM197.486 87V67.56H200.69V75.75H210.914V67.56H214.118V87H210.914V78.792H200.69V87H197.486ZM231.167 87V79.962H226.973C226.481 79.962 225.935 79.944 225.335 79.908C224.747 79.86 224.195 79.794 223.679 79.71C222.275 79.446 221.087 78.828 220.115 77.856C219.155 76.884 218.675 75.54 218.675 73.824C218.675 72.156 219.125 70.818 220.025 69.81C220.937 68.79 222.059 68.13 223.391 67.83C223.991 67.686 224.597 67.608 225.209 67.596C225.833 67.572 226.361 67.56 226.793 67.56H234.371L234.389 87H231.167ZM218.081 87L223.247 79.08H226.703L221.537 87H218.081ZM226.739 77.316H231.167V70.206H226.739C226.463 70.206 226.097 70.218 225.641 70.242C225.197 70.266 224.771 70.338 224.363 70.458C223.979 70.566 223.601 70.764 223.229 71.052C222.869 71.34 222.569 71.712 222.329 72.168C222.089 72.624 221.969 73.164 221.969 73.788C221.969 74.688 222.221 75.42 222.725 75.984C223.229 76.536 223.841 76.908 224.561 77.1C224.957 77.196 225.347 77.256 225.731 77.28C226.127 77.304 226.463 77.316 226.739 77.316Z" fill="#F16F33"/>
</svg>
